<svg id="visual" viewBox="0 0 1920 1080" width="1920" height="1080" xmlns="http://www.w3.org/2000/svg" xmlns:xlink="http://www.w3.org/1999/xlink" version="1.1"><rect x="0" y="0" width="1920" height="1080" fill="#001220"></rect><defs><linearGradient id="grad1_0" x1="43.8%" y1="0%" x2="100%" y2="100%"><stop offset="14.444444444444446%" stop-color="#7bbc7e" stop-opacity="1"></stop><stop offset="85.55555555555554%" stop-color="#7bbc7e" stop-opacity="1"></stop></linearGradient></defs><defs><linearGradient id="grad1_1" x1="43.8%" y1="0%" x2="100%" y2="100%"><stop offset="14.444444444444446%" stop-color="#7bbc7e" stop-opacity="1"></stop><stop offset="85.55555555555554%" stop-color="#4fa47c" stop-opacity="1"></stop></linearGradient></defs><defs><linearGradient id="grad1_2" x1="43.8%" y1="0%" x2="100%" y2="100%"><stop offset="14.444444444444446%" stop-color="#248a78" stop-opacity="1"></stop><stop offset="85.55555555555554%" stop-color="#4fa47c" stop-opacity="1"></stop></linearGradient></defs><defs><linearGradient id="grad1_3" x1="43.8%" y1="0%" x2="100%" y2="100%"><stop offset="14.444444444444446%" stop-color="#248a78" stop-opacity="1"></stop><stop offset="85.55555555555554%" stop-color="#00716f" stop-opacity="1"></stop></linearGradient></defs><defs><linearGradient id="grad1_4" x1="43.8%" y1="0%" x2="100%" y2="100%"><stop offset="14.444444444444446%" stop-color="#005761" stop-opacity="1"></stop><stop offset="85.55555555555554%" stop-color="#00716f" stop-opacity="1"></stop></linearGradient></defs><defs><linearGradient id="grad1_5" x1="43.8%" y1="0%" x2="100%" y2="100%"><stop offset="14.444444444444446%" stop-color="#005761" stop-opacity="1"></stop><stop offset="85.55555555555554%" stop-color="#003f4f" stop-opacity="1"></stop></linearGradient></defs><defs><linearGradient id="grad1_6" x1="43.8%" y1="0%" x2="100%" y2="100%"><stop offset="14.444444444444446%" stop-color="#002838" stop-opacity="1"></stop><stop offset="85.55555555555554%" stop-color="#003f4f" stop-opacity="1"></stop></linearGradient></defs><defs><linearGradient id="grad1_7" x1="43.8%" y1="0%" x2="100%" y2="100%"><stop offset="14.444444444444446%" stop-color="#002838" stop-opacity="1"></stop><stop offset="85.55555555555554%" stop-color="#001220" stop-opacity="1"></stop></linearGradient></defs><defs><linearGradient id="grad2_0" x1="0%" y1="0%" x2="56.3%" y2="100%"><stop offset="14.444444444444446%" stop-color="#7bbc7e" stop-opacity="1"></stop><stop offset="85.55555555555554%" stop-color="#7bbc7e" stop-opacity="1"></stop></linearGradient></defs><defs><linearGradient id="grad2_1" x1="0%" y1="0%" x2="56.3%" y2="100%"><stop offset="14.444444444444446%" stop-color="#4fa47c" stop-opacity="1"></stop><stop offset="85.55555555555554%" stop-color="#7bbc7e" stop-opacity="1"></stop></linearGradient></defs><defs><linearGradient id="grad2_2" x1="0%" y1="0%" x2="56.3%" y2="100%"><stop offset="14.444444444444446%" stop-color="#4fa47c" stop-opacity="1"></stop><stop offset="85.55555555555554%" stop-color="#248a78" stop-opacity="1"></stop></linearGradient></defs><defs><linearGradient id="grad2_3" x1="0%" y1="0%" x2="56.3%" y2="100%"><stop offset="14.444444444444446%" stop-color="#00716f" stop-opacity="1"></stop><stop offset="85.55555555555554%" stop-color="#248a78" stop-opacity="1"></stop></linearGradient></defs><defs><linearGradient id="grad2_4" x1="0%" y1="0%" x2="56.3%" y2="100%"><stop offset="14.444444444444446%" stop-color="#00716f" stop-opacity="1"></stop><stop offset="85.55555555555554%" stop-color="#005761" stop-opacity="1"></stop></linearGradient></defs><defs><linearGradient id="grad2_5" x1="0%" y1="0%" x2="56.3%" y2="100%"><stop offset="14.444444444444446%" stop-color="#003f4f" stop-opacity="1"></stop><stop offset="85.55555555555554%" stop-color="#005761" stop-opacity="1"></stop></linearGradient></defs><defs><linearGradient id="grad2_6" x1="0%" y1="0%" x2="56.3%" y2="100%"><stop offset="14.444444444444446%" stop-color="#003f4f" stop-opacity="1"></stop><stop offset="85.55555555555554%" stop-color="#002838" stop-opacity="1"></stop></linearGradient></defs><defs><linearGradient id="grad2_7" x1="0%" y1="0%" x2="56.3%" y2="100%"><stop offset="14.444444444444446%" stop-color="#001220" stop-opacity="1"></stop><stop offset="85.55555555555554%" stop-color="#002838" stop-opacity="1"></stop></linearGradient></defs><g transform="translate(1920, 0)"><path d="M0 648C-120 634.9 -240 621.8 -324 561.2C-408 500.6 -456 392.4 -504 291C-552 189.6 -600 94.8 -648 0L0 0Z" fill="#021d2c"></path><path d="M0 567C-105 555.5 -210 544.1 -283.5 491C-357 438 -399 343.4 -441 254.6C-483 165.9 -525 82.9 -567 0L0 0Z" fill="#003344"></path><path d="M0 486C-90 476.2 -180 466.3 -243 420.9C-306 375.4 -342 294.3 -378 218.3C-414 142.2 -450 71.1 -486 0L0 0Z" fill="#004b59"></path><path d="M0 405C-75 396.8 -150 388.6 -202.5 350.7C-255 312.9 -285 245.3 -315 181.9C-345 118.5 -375 59.2 -405 0L0 0Z" fill="#006469"></path><path d="M0 324C-60 317.4 -120 310.9 -162 280.6C-204 250.3 -228 196.2 -252 145.5C-276 94.8 -300 47.4 -324 0L0 0Z" fill="#0b7e74"></path><path d="M0 243C-45 238.1 -90 233.2 -121.5 210.4C-153 187.7 -171 147.2 -189 109.1C-207 71.1 -225 35.5 -243 0L0 0Z" fill="#3a977b"></path><path d="M0 162C-30 158.7 -60 155.4 -81 140.3C-102 125.1 -114 98.1 -126 72.8C-138 47.4 -150 23.7 -162 0L0 0Z" fill="#64b07d"></path><path d="M0 81C-15 79.4 -30 77.7 -40.5 70.1C-51 62.6 -57 49.1 -63 36.4C-69 23.7 -75 11.8 -81 0L0 0Z" fill="#7bbc7e"></path></g><g transform="translate(0, 1080)"><path d="M0 -648C116.8 -633 233.5 -618.1 324 -561.2C414.5 -504.3 478.7 -405.5 528.3 -305C577.9 -204.5 612.9 -102.2 648 0L0 0Z" fill="#021d2c"></path><path d="M0 -567C102.2 -553.9 204.3 -540.8 283.5 -491C362.7 -441.3 418.8 -354.8 462.2 -266.9C505.7 -178.9 536.3 -89.5 567 0L0 0Z" fill="#003344"></path><path d="M0 -486C87.6 -474.8 175.1 -463.5 243 -420.9C310.9 -378.2 359 -304.1 396.2 -228.8C433.4 -153.4 459.7 -76.7 486 0L0 0Z" fill="#004b59"></path><path d="M0 -405C73 -395.6 146 -386.3 202.5 -350.7C259 -315.2 299.2 -253.4 330.2 -190.6C361.2 -127.8 383.1 -63.9 405 0L0 0Z" fill="#006469"></path><path d="M0 -324C58.4 -316.5 116.8 -309 162 -280.6C207.2 -252.2 239.3 -202.8 264.1 -152.5C288.9 -102.2 306.5 -51.1 324 0L0 0Z" fill="#0b7e74"></path><path d="M0 -243C43.8 -237.4 87.6 -231.8 121.5 -210.4C155.4 -189.1 179.5 -152.1 198.1 -114.4C216.7 -76.7 229.9 -38.3 243 0L0 0Z" fill="#3a977b"></path><path d="M0 -162C29.2 -158.3 58.4 -154.5 81 -140.3C103.6 -126.1 119.7 -101.4 132.1 -76.3C144.5 -51.1 153.2 -25.6 162 0L0 0Z" fill="#64b07d"></path><path d="M0 -81C14.6 -79.1 29.2 -77.3 40.5 -70.1C51.8 -63 59.8 -50.7 66 -38.1C72.2 -25.6 76.6 -12.8 81 0L0 0Z" fill="#7bbc7e"></path></g></svg>