<svg id="visual" viewBox="0 0 1920 1080" width="1920" height="1080" xmlns="http://www.w3.org/2000/svg" xmlns:xlink="http://www.w3.org/1999/xlink" version="1.1"><rect x="0" y="0" width="1920" height="1080" fill="#FFF2ED"></rect><defs><linearGradient id="grad1_0" x1="43.8%" y1="0%" x2="100%" y2="100%"><stop offset="14.444444444444446%" stop-color="#545454" stop-opacity="1"></stop><stop offset="85.55555555555554%" stop-color="#545454" stop-opacity="1"></stop></linearGradient></defs><defs><linearGradient id="grad1_1" x1="43.8%" y1="0%" x2="100%" y2="100%"><stop offset="14.444444444444446%" stop-color="#545454" stop-opacity="1"></stop><stop offset="85.55555555555554%" stop-color="#6a6968" stop-opacity="1"></stop></linearGradient></defs><defs><linearGradient id="grad1_2" x1="43.8%" y1="0%" x2="100%" y2="100%"><stop offset="14.444444444444446%" stop-color="#817e7d" stop-opacity="1"></stop><stop offset="85.55555555555554%" stop-color="#6a6968" stop-opacity="1"></stop></linearGradient></defs><defs><linearGradient id="grad1_3" x1="43.8%" y1="0%" x2="100%" y2="100%"><stop offset="14.444444444444446%" stop-color="#817e7d" stop-opacity="1"></stop><stop offset="85.55555555555554%" stop-color="#999492" stop-opacity="1"></stop></linearGradient></defs><defs><linearGradient id="grad1_4" x1="43.8%" y1="0%" x2="100%" y2="100%"><stop offset="14.444444444444446%" stop-color="#b2aba8" stop-opacity="1"></stop><stop offset="85.55555555555554%" stop-color="#999492" stop-opacity="1"></stop></linearGradient></defs><defs><linearGradient id="grad1_5" x1="43.8%" y1="0%" x2="100%" y2="100%"><stop offset="14.444444444444446%" stop-color="#b2aba8" stop-opacity="1"></stop><stop offset="85.55555555555554%" stop-color="#cbc2bf" stop-opacity="1"></stop></linearGradient></defs><defs><linearGradient id="grad1_6" x1="43.8%" y1="0%" x2="100%" y2="100%"><stop offset="14.444444444444446%" stop-color="#e5dad6" stop-opacity="1"></stop><stop offset="85.55555555555554%" stop-color="#cbc2bf" stop-opacity="1"></stop></linearGradient></defs><defs><linearGradient id="grad1_7" x1="43.8%" y1="0%" x2="100%" y2="100%"><stop offset="14.444444444444446%" stop-color="#e5dad6" stop-opacity="1"></stop><stop offset="85.55555555555554%" stop-color="#fff2ed" stop-opacity="1"></stop></linearGradient></defs><defs><linearGradient id="grad2_0" x1="0%" y1="0%" x2="56.3%" y2="100%"><stop offset="14.444444444444446%" stop-color="#545454" stop-opacity="1"></stop><stop offset="85.55555555555554%" stop-color="#545454" stop-opacity="1"></stop></linearGradient></defs><defs><linearGradient id="grad2_1" x1="0%" y1="0%" x2="56.3%" y2="100%"><stop offset="14.444444444444446%" stop-color="#6a6968" stop-opacity="1"></stop><stop offset="85.55555555555554%" stop-color="#545454" stop-opacity="1"></stop></linearGradient></defs><defs><linearGradient id="grad2_2" x1="0%" y1="0%" x2="56.3%" y2="100%"><stop offset="14.444444444444446%" stop-color="#6a6968" stop-opacity="1"></stop><stop offset="85.55555555555554%" stop-color="#817e7d" stop-opacity="1"></stop></linearGradient></defs><defs><linearGradient id="grad2_3" x1="0%" y1="0%" x2="56.3%" y2="100%"><stop offset="14.444444444444446%" stop-color="#999492" stop-opacity="1"></stop><stop offset="85.55555555555554%" stop-color="#817e7d" stop-opacity="1"></stop></linearGradient></defs><defs><linearGradient id="grad2_4" x1="0%" y1="0%" x2="56.3%" y2="100%"><stop offset="14.444444444444446%" stop-color="#999492" stop-opacity="1"></stop><stop offset="85.55555555555554%" stop-color="#b2aba8" stop-opacity="1"></stop></linearGradient></defs><defs><linearGradient id="grad2_5" x1="0%" y1="0%" x2="56.3%" y2="100%"><stop offset="14.444444444444446%" stop-color="#cbc2bf" stop-opacity="1"></stop><stop offset="85.55555555555554%" stop-color="#b2aba8" stop-opacity="1"></stop></linearGradient></defs><defs><linearGradient id="grad2_6" x1="0%" y1="0%" x2="56.3%" y2="100%"><stop offset="14.444444444444446%" stop-color="#cbc2bf" stop-opacity="1"></stop><stop offset="85.55555555555554%" stop-color="#e5dad6" stop-opacity="1"></stop></linearGradient></defs><defs><linearGradient id="grad2_7" x1="0%" y1="0%" x2="56.3%" y2="100%"><stop offset="14.444444444444446%" stop-color="#fff2ed" stop-opacity="1"></stop><stop offset="85.55555555555554%" stop-color="#e5dad6" stop-opacity="1"></stop></linearGradient></defs><g transform="translate(1920, 0)"><path d="M0 647C-97.6 663.4 -195.2 679.8 -266.7 643.9C-338.3 608.1 -383.8 520.1 -453.3 453.3C-522.7 386.4 -616.1 340.7 -648.6 268.6C-681 196.6 -652.5 98.3 -624 0L0 0Z" fill="#f2e6e1"></path><path d="M0 566.1C-85.4 580.5 -170.8 594.8 -233.4 563.5C-296 532.1 -335.8 455.1 -396.6 396.6C-457.4 338.1 -539.1 298.1 -567.5 235.1C-595.9 172 -570.9 86 -546 0L0 0Z" fill="#d8ceca"></path><path d="M0 485.3C-73.2 497.5 -146.4 509.8 -200 483C-253.7 456.1 -287.8 390.1 -339.9 339.9C-392 289.8 -462.1 255.5 -486.4 201.5C-510.8 147.5 -489.4 73.7 -468 0L0 0Z" fill="#beb6b3"></path><path d="M0 404.4C-61 414.6 -122 424.8 -166.7 402.5C-211.4 380.1 -239.9 325.1 -283.3 283.3C-326.7 241.5 -385.1 212.9 -405.4 167.9C-425.6 122.9 -407.8 61.4 -390 0L0 0Z" fill="#a59f9d"></path><path d="M0 323.5C-48.8 331.7 -97.6 339.9 -133.4 322C-169.1 304.1 -191.9 260.1 -226.6 226.6C-261.4 193.2 -308.1 170.3 -324.3 134.3C-340.5 98.3 -326.3 49.2 -312 0L0 0Z" fill="#8d8987"></path><path d="M0 242.6C-36.6 248.8 -73.2 254.9 -100 241.5C-126.9 228 -143.9 195 -170 170C-196 144.9 -231 127.7 -243.2 100.7C-255.4 73.7 -244.7 36.9 -234 0L0 0Z" fill="#767372"></path><path d="M0 161.8C-24.4 165.8 -48.8 169.9 -66.7 161C-84.6 152 -95.9 130 -113.3 113.3C-130.7 96.6 -154 85.2 -162.1 67.2C-170.3 49.2 -163.1 24.6 -156 0L0 0Z" fill="#5f5e5e"></path><path d="M0 80.9C-12.2 82.9 -24.4 85 -33.3 80.5C-42.3 76 -48 65 -56.7 56.7C-65.3 48.3 -77 42.6 -81.1 33.6C-85.1 24.6 -81.6 12.3 -78 0L0 0Z" fill="#545454"></path></g><g transform="translate(0, 1080)"><path d="M0 -611C84.8 -618.1 169.6 -625.1 251 -606.1C332.5 -587 410.6 -541.9 483 -483C555.3 -424.1 622 -351.4 648.6 -268.6C675.1 -185.9 661.6 -92.9 648 0L0 0Z" fill="#f2e6e1"></path><path d="M0 -534.6C74.2 -540.8 148.4 -547 219.7 -530.3C290.9 -513.6 359.3 -474.1 422.6 -422.6C485.9 -371 544.3 -307.5 567.5 -235.1C590.7 -162.6 578.9 -81.3 567 0L0 0Z" fill="#d8ceca"></path><path d="M0 -458.2C63.6 -463.5 127.2 -468.8 188.3 -454.5C249.4 -440.3 307.9 -406.4 362.2 -362.2C416.5 -318 466.5 -263.6 486.4 -201.5C506.3 -139.4 496.2 -69.7 486 0L0 0Z" fill="#beb6b3"></path><path d="M0 -381.9C53 -386.3 106 -390.7 156.9 -378.8C207.8 -366.9 256.6 -338.7 301.8 -301.8C347.1 -265 388.8 -219.6 405.4 -167.9C421.9 -116.2 413.5 -58.1 405 0L0 0Z" fill="#a59f9d"></path><path d="M0 -305.5C42.4 -309 84.8 -312.6 125.5 -303C166.2 -293.5 205.3 -270.9 241.5 -241.5C277.7 -212 311 -175.7 324.3 -134.3C337.6 -92.9 330.8 -46.5 324 0L0 0Z" fill="#8d8987"></path><path d="M0 -229.1C31.8 -231.8 63.6 -234.4 94.1 -227.3C124.7 -220.1 154 -203.2 181.1 -181.1C208.3 -159 233.3 -131.8 243.2 -100.7C253.2 -69.7 248.1 -34.8 243 0L0 0Z" fill="#767372"></path><path d="M0 -152.7C21.2 -154.5 42.4 -156.3 62.8 -151.5C83.1 -146.8 102.6 -135.5 120.7 -120.7C138.8 -106 155.5 -87.9 162.1 -67.2C168.8 -46.5 165.4 -23.2 162 0L0 0Z" fill="#5f5e5e"></path><path d="M0 -76.4C10.6 -77.3 21.2 -78.1 31.4 -75.8C41.6 -73.4 51.3 -67.7 60.4 -60.4C69.4 -53 77.8 -43.9 81.1 -33.6C84.4 -23.2 82.7 -11.6 81 0L0 0Z" fill="#545454"></path></g></svg>